/* XPM */
static char * yade32x32_xpm[] = {
"32 32 933 2",
"  	c None",
". 	c #FCDCDB",
"+ 	c #AE9191",
"@ 	c #848484",
"# 	c #949494",
"$ 	c #A6A6A6",
"% 	c #BAB9BA",
"& 	c #A8A9A8",
"* 	c #CECDCE",
"= 	c #C0C0C0",
"- 	c #CACACA",
"; 	c #CCCCCC",
"> 	c #A9A7A9",
", 	c #B2B2B2",
"' 	c #C7C7C7",
") 	c #B7B6B7",
"! 	c #BCBCBC",
"~ 	c #C5C4C5",
"{ 	c #D1CFD1",
"] 	c #C7C6C7",
"^ 	c #D9D9D9",
"/ 	c #E6E6E6",
"( 	c #E3E4E3",
"_ 	c #D4D5D4",
": 	c #BFBFBF",
"< 	c #D0D1D0",
"[ 	c #D2D3D2",
"} 	c #DDDDDD",
"| 	c #E2E2E2",
"1 	c #E6E5E6",
"2 	c #E3E3E3",
"3 	c #DADADA",
"4 	c #FB9A9A",
"5 	c #E48383",
"6 	c #808483",
"7 	c #A5A6A5",
"8 	c #A0A0A0",
"9 	c #D0CED0",
"0 	c #A8AAA8",
"a 	c #B0B1B0",
"b 	c #E0E0E0",
"c 	c #ABA9AB",
"d 	c #B3B3B3",
"e 	c #ADADAD",
"f 	c #B5B6B5",
"g 	c #C7C9C7",
"h 	c #E2E1E2",
"i 	c #D3D3D3",
"j 	c #BEBEBE",
"k 	c #BDBDBD",
"l 	c #CDCECD",
"m 	c #D7D7D7",
"n 	c #D0D0D0",
"o 	c #C3C3C3",
"p 	c #CFCFCF",
"q 	c #CECECE",
"r 	c #E1E1E1",
"s 	c #E7E8E7",
"t 	c #EAEAEA",
"u 	c #DCDDDC",
"v 	c #FA4949",
"w 	c #FC7F7F",
"x 	c #FFB0B0",
"y 	c #D08F8F",
"z 	c #A1A7A6",
"A 	c #EEADAE",
"B 	c #D1ADAD",
"C 	c #A0A1A0",
"D 	c #BEBFBE",
"E 	c #919091",
"F 	c #D6D6D6",
"G 	c #959795",
"H 	c #CDCCCD",
"I 	c #C6C7C6",
"J 	c #B3B5B3",
"K 	c #D4D3D4",
"L 	c #D5D4D5",
"M 	c #FFFFFF",
"N 	c #FEFEFE",
"O 	c #F3F3F3",
"P 	c #D5D6D5",
"Q 	c #FD5252",
"R 	c #FD9B9B",
"S 	c #FEDFDF",
"T 	c #FECBCC",
"U 	c #F16767",
"V 	c #FB8485",
"W 	c #FBDBDB",
"X 	c #E3BDBE",
"Y 	c #B8BAB9",
"Z 	c #B1AFB1",
"` 	c #C0C1C0",
" .	c #B9B9B9",
"..	c #C1C1C1",
"+.	c #9E9F9E",
"@.	c #CFCDCF",
"#.	c #B7B8B7",
"$.	c #D2D2D2",
"%.	c #F1F1F1",
"&.	c #C5C5C5",
"*.	c #CECFCE",
"=.	c #DBDADB",
"-.	c #FBFBFB",
";.	c #FE6161",
">.	c #FE9796",
",.	c #FEB4B4",
"'.	c #FEACAC",
").	c #F85E5E",
"!.	c #EE7676",
"~.	c #E78E8E",
"{.	c #DA8384",
"].	c #999B9D",
"^.	c #878788",
"/.	c #C7C8C9",
"(.	c #ACAEAE",
"_.	c #BFBEBF",
":.	c #A8A8A8",
"<.	c #B0AFB0",
"[.	c #A3A5A3",
"}.	c #BDBEBD",
"|.	c #C3C4C3",
"1.	c #B4B3B4",
"2.	c #BFC0BF",
"3.	c #A4A5A4",
"4.	c #F9F9F9",
"5.	c #FE3031",
"6.	c #FE6868",
"7.	c #FEBCBC",
"8.	c #FFB1B1",
"9.	c #D35A5A",
"0.	c #CE0A0A",
"a.	c #000000",
"b.	c #5C5500",
"c.	c #525200",
"d.	c #515000",
"e.	c #595900",
"f.	c #545300",
"g.	c #1B1B22",
"h.	c #C3C2C3",
"i.	c #D3D1D3",
"j.	c #9D9E9D",
"k.	c #9A9B9A",
"l.	c #B9BAB9",
"m.	c #BABBBA",
"n.	c #7A7B7C",
"o.	c #353500",
"p.	c #505000",
"q.	c #5F5E00",
"r.	c #525203",
"s.	c #545400",
"t.	c #252500",
"u.	c #4D4D4D",
"v.	c #E2E3E3",
"w.	c #FCFCFC",
"x.	c #FE3333",
"y.	c #FD7F80",
"z.	c #FEB8B8",
"A.	c #FDBDBD",
"B.	c #FE9696",
"C.	c #FFDBDB",
"D.	c #4D3B40",
"E.	c #7A7B00",
"F.	c #A4A400",
"G.	c #B1B000",
"H.	c #979800",
"I.	c #A8A900",
"J.	c #3C3C00",
"K.	c #818181",
"L.	c #AAABAA",
"M.	c #B4B4B4",
"N.	c #BCBDBC",
"O.	c #CBCCCB",
"P.	c #232308",
"Q.	c #CDCB02",
"R.	c #E7E71E",
"S.	c #DFDE0D",
"T.	c #DEDD02",
"U.	c #DADA03",
"V.	c #1A1A18",
"W.	c #DEDEDE",
"X.	c #CDCCCE",
"Y.	c #B6B6B8",
"Z.	c #CBCACC",
"`.	c #F25050",
" +	c #FE4949",
".+	c #FD6D6D",
"++	c #FE6D6D",
"@+	c #E8A2A2",
"#+	c #F9ACAC",
"$+	c #E5A6A6",
"%+	c #14140D",
"&+	c #BAB902",
"*+	c #CACA02",
"=+	c #CCCE07",
"-+	c #A8AA0A",
";+	c #0E0E0D",
">+	c #B0B0B0",
",+	c #ACACAC",
"'+	c #BBBABB",
")+	c #CAC9CA",
"!+	c #C9C8C9",
"~+	c #C8C7C8",
"{+	c #3F3F49",
"]+	c #A7A800",
"^+	c #C3C100",
"/+	c #D7D700",
"(+	c #E3E203",
"_+	c #F0F010",
":+	c #343400",
"<+	c #A5A4A6",
"[+	c #C4C4C5",
"}+	c #CAC9CB",
"|+	c #CFCFD0",
"1+	c #D7D7D9",
"2+	c #DDAAAA",
"3+	c #F82E2E",
"4+	c #FE6E6E",
"5+	c #F39494",
"6+	c #E1D0D0",
"7+	c #E89797",
"8+	c #CAA5A5",
"9+	c #806C6C",
"0+	c #6A5816",
"a+	c #B9B900",
"b+	c #B9B903",
"c+	c #C0C101",
"d+	c #B9BA07",
"e+	c #787802",
"f+	c #2F2F34",
"g+	c #979697",
"h+	c #C1BFC1",
"i+	c #8C8B8C",
"j+	c #484800",
"k+	c #CDCC00",
"l+	c #B7B700",
"m+	c #D1CF05",
"n+	c #D6D50D",
"o+	c #878700",
"p+	c #47474D",
"q+	c #B8B8B9",
"r+	c #D5D6D6",
"s+	c #CBCBCE",
"t+	c #F7F7F7",
"u+	c #E95656",
"v+	c #FF6767",
"w+	c #FDB1B1",
"x+	c #FEE5E5",
"y+	c #EDB3B3",
"z+	c #E08E8E",
"A+	c #F35E5E",
"B+	c #FF8181",
"C+	c #FFCDD0",
"D+	c #F9BF86",
"E+	c #C0A100",
"F+	c #C5B300",
"G+	c #DCDE15",
"H+	c #ADAE00",
"I+	c #2D2D00",
"J+	c #707070",
"K+	c #858485",
"L+	c #C1BEC1",
"M+	c #C4C2C4",
"N+	c #1B1A16",
"O+	c #CBCB02",
"P+	c #DEDD15",
"Q+	c #C4C404",
"R+	c #BABB00",
"S+	c #CACB07",
"T+	c #0D0D0A",
"U+	c #AAAAAB",
"V+	c #BFC0C1",
"W+	c #B7B7BA",
"X+	c #C8C8CC",
"Y+	c #E3E2E5",
"Z+	c #D8D6DA",
"`+	c #F52222",
" @	c #FD7B7B",
".@	c #FEA6A6",
"+@	c #FDC3C3",
"@@	c #FA9A9A",
"#@	c #DB6060",
"$@	c #FF403F",
"%@	c #FE9393",
"&@	c #FECACA",
"*@	c #FDC2CA",
"=@	c #FEA30D",
"-@	c #FDE400",
";@	c #D2BB00",
">@	c #A2A200",
",@	c #BCBD08",
"'@	c #080707",
")@	c #848284",
"!@	c #7C7B7C",
"~@	c #494850",
"{@	c #8C8B00",
"]@	c #C3C306",
"^@	c #C5C607",
"/@	c #C4C403",
"(@	c #E4E41B",
"_@	c #2D2E00",
":@	c #7B7B7C",
"<@	c #949697",
"[@	c #D3D2D6",
"}@	c #BCBBC0",
"|@	c #B1B1B6",
"1@	c #DFDEE1",
"2@	c #FB3B3B",
"3@	c #FE504F",
"4@	c #FE6F70",
"5@	c #FE7E7D",
"6@	c #F86565",
"7@	c #EF6C6C",
"8@	c #FE2626",
"9@	c #FE7575",
"0@	c #FE8888",
"a@	c #FF8888",
"b@	c #734912",
"c@	c #FFB716",
"d@	c #E3A600",
"e@	c #A7AA00",
"f@	c #AFAE00",
"g@	c #6F6F03",
"h@	c #3E3F44",
"i@	c #787777",
"j@	c #292900",
"k@	c #C4C300",
"l@	c #D9D704",
"m@	c #C9C800",
"n@	c #939306",
"o@	c #393940",
"p@	c #909193",
"q@	c #96969B",
"r@	c #B4B3B8",
"s@	c #CAC9CD",
"t@	c #C1C0C5",
"u@	c #C2C1C7",
"v@	c #D8D7DC",
"w@	c #E64A4A",
"x@	c #FE3030",
"y@	c #FD2121",
"z@	c #FE4141",
"A@	c #FE8C8C",
"B@	c #FED6D6",
"C@	c #FE6B6B",
"D@	c #FE1A1A",
"E@	c #FE3A3A",
"F@	c #FD4A4A",
"G@	c #FF7F81",
"H@	c #FDB0B7",
"I@	c #F8C2B2",
"J@	c #BFAA0A",
"K@	c #BAB904",
"L@	c #CCCB02",
"M@	c #272703",
"N@	c #17171B",
"O@	c #939400",
"P@	c #B3B400",
"Q@	c #A9AA00",
"R@	c #C6C500",
"S@	c #C4C302",
"T@	c #090909",
"U@	c #A6A6A9",
"V@	c #CAC7CC",
"W@	c #CECED1",
"X@	c #AFAEB4",
"Y@	c #9C9BA3",
"Z@	c #B7B6BD",
"`@	c #AAAAB2",
" #	c #FF8484",
".#	c #FECFCF",
"+#	c #FEB0B1",
"@#	c #FD3F3F",
"##	c #FE9897",
"$#	c #FEC8C8",
"%#	c #FEB2B2",
"&#	c #FE7C7C",
"*#	c #FE8081",
"=#	c #FE494A",
"-#	c #FE8D8E",
";#	c #FEC7C7",
">#	c #FDEAE9",
",#	c #FEB07E",
"'#	c #C9C101",
")#	c #E1E211",
"!#	c #BFC00F",
"~#	c #787700",
"{#	c #B6B605",
"]#	c #B5B506",
"^#	c #B0B114",
"/#	c #AFB103",
"(#	c #848487",
"_#	c #B8B8BB",
":#	c #B7B5BB",
"<#	c #D0D0D3",
"[#	c #DDDCDF",
"}#	c #D1CFD5",
"|#	c #C1C0C7",
"1#	c #D5D5DA",
"2#	c #FE9292",
"3#	c #FEC9C9",
"4#	c #FDCAC9",
"5#	c #FE3838",
"6#	c #FD6969",
"7#	c #FE7E7E",
"8#	c #FE7474",
"9#	c #FE8C8B",
"0#	c #FE5A5A",
"a#	c #FE5959",
"b#	c #FE9191",
"c#	c #FEABAB",
"d#	c #FEBBBB",
"e#	c #FE989E",
"f#	c #FDB700",
"g#	c #C5C506",
"h#	c #BDBD00",
"i#	c #F6F416",
"j#	c #D3D415",
"k#	c #ACAD00",
"l#	c #C0C108",
"m#	c #888804",
"n#	c #2B2A33",
"o#	c #9F9FA4",
"p#	c #CECDD1",
"q#	c #C3C0C7",
"r#	c #B3B1BB",
"s#	c #C1C0C8",
"t#	c #D3D2D8",
"u#	c #FE8989",
"v#	c #FF8686",
"w#	c #EE5353",
"x#	c #FE1212",
"y#	c #FD2A2A",
"z#	c #FE2A2B",
"A#	c #FE5353",
"B#	c #FE4747",
"C#	c #FE6767",
"D#	c #FE7777",
"E#	c #FD8080",
"F#	c #FB725C",
"G#	c #C69F00",
"H#	c #B8B901",
"I#	c #BABB03",
"J#	c #A0A102",
"K#	c #DBDA10",
"L#	c #070706",
"M#	c #908E94",
"N#	c #9A9BA1",
"O#	c #B7B7BB",
"P#	c #B6B4BC",
"Q#	c #CCCAD0",
"R#	c #ADACB7",
"S#	c #D5D4DA",
"T#	c #C3C2CB",
"U#	c #C9C8D0",
"V#	c #FD2424",
"W#	c #FD4141",
"X#	c #F44545",
"Y#	c #DE8888",
"Z#	c #E1B4B4",
"`#	c #F37D7D",
" $	c #FE9C9C",
".$	c #FE9999",
"+$	c #FE4343",
"@$	c #FD0606",
"#$	c #FE2222",
"$$	c #FE3F3E",
"%$	c #FF4545",
"&$	c #4B1A13",
"*$	c #ABAF00",
"=$	c #B1B201",
"-$	c #C4C608",
";$	c #D0D010",
">$	c #A1A104",
",$	c #404000",
"'$	c #444449",
")$	c #8E8C94",
"!$	c #8D8C96",
"~$	c #A7A5AF",
"{$	c #F1EEF3",
"]$	c #BCBAC3",
"^$	c #C1BFC8",
"/$	c #B3B2BE",
"($	c #FB2B2B",
"_$	c #FC6565",
":$	c #F36262",
"<$	c #DE4140",
"[$	c #FD5959",
"}$	c #FD7F7F",
"|$	c #FEE8E8",
"1$	c #FF7373",
"2$	c #FE4B4C",
"3$	c #F54041",
"4$	c #FE6061",
"5$	c #AB6D6D",
"6$	c #4A3A00",
"7$	c #DEC004",
"8$	c #999E0A",
"9$	c #8F9603",
"0$	c #A5AA07",
"a$	c #838407",
"b$	c #1C1C24",
"c$	c #727178",
"d$	c #9F9CA6",
"e$	c #95949F",
"f$	c #CECAD3",
"g$	c #A7A5B1",
"h$	c #CBC9D2",
"i$	c #D0CED7",
"j$	c #BDBBC7",
"k$	c #FC3838",
"l$	c #FC7575",
"m$	c #FC8D8D",
"n$	c #F63F3F",
"o$	c #FE5252",
"p$	c #FEB3B3",
"q$	c #FED7D7",
"r$	c #FEC1C1",
"s$	c #F47A7A",
"t$	c #FB7B7B",
"u$	c #FE3F3F",
"v$	c #FD7E7E",
"w$	c #FFC7C7",
"x$	c #1A1B14",
"y$	c #FFCA01",
"z$	c #D89302",
"A$	c #FDA103",
"B$	c #F8CA04",
"C$	c #564E00",
"D$	c #56545B",
"E$	c #9D9DA4",
"F$	c #9895A0",
"G$	c #95949E",
"H$	c #9C9BA6",
"I$	c #92919D",
"J$	c #8D8C9A",
"K$	c #A3A2AF",
"L$	c #A6A6B2",
"M$	c #AEAEBA",
"N$	c #B3B2BF",
"O$	c #B4B2C0",
"P$	c #FC3232",
"Q$	c #FC4B4A",
"R$	c #FC5252",
"S$	c #FB4646",
"T$	c #FE4545",
"U$	c #FE8282",
"V$	c #FD9292",
"W$	c #FEA1A1",
"X$	c #FF9596",
"Y$	c #D46161",
"Z$	c #E36D6D",
"`$	c #FF3232",
" %	c #FD8687",
".%	c #FFABAB",
"+%	c #1E1B12",
"@%	c #FFBA02",
"#%	c #F48104",
"$%	c #F6AC04",
"%%	c #F7D706",
"&%	c #625700",
"*%	c #88878D",
"=%	c #B2AFB9",
"-%	c #9E9BA7",
";%	c #B3B2BC",
">%	c #9F9CAC",
",%	c #C4C2CD",
"'%	c #C3C3CE",
")%	c #A3A2B2",
"!%	c #908FA3",
"~%	c #FC0201",
"{%	c #FB0D0D",
"]%	c #FC1111",
"^%	c #F81919",
"/%	c #FB5858",
"(%	c #FB6767",
"_%	c #FE5B5B",
":%	c #FF6565",
"<%	c #BA5656",
"[%	c #C86464",
"}%	c #F91515",
"|%	c #FD5656",
"1%	c #FF7273",
"2%	c #1E140B",
"3%	c #FB9003",
"4%	c #F36905",
"5%	c #F49407",
"6%	c #F6A308",
"7%	c #624503",
"8%	c #B9B7BF",
"9%	c #9A96A4",
"0%	c #A7A6B2",
"a%	c #9A98A5",
"b%	c #9895A7",
"c%	c #A09EAE",
"d%	c #AEADBB",
"e%	c #8B8B9B",
"f%	c #75738B",
"g%	c #F20B0B",
"h%	c #F51313",
"i%	c #F41C1C",
"j%	c #FC2728",
"k%	c #FC6C6C",
"l%	c #FC8484",
"m%	c #FE3C3C",
"n%	c #FD4242",
"o%	c #FD6F6E",
"p%	c #FFA5A5",
"q%	c #FFCDCC",
"r%	c #FC7E7E",
"s%	c #FB090B",
"t%	c #FF2D31",
"u%	c #220B05",
"v%	c #CA9306",
"w%	c #F3680A",
"x%	c #F35308",
"y%	c #F8660A",
"z%	c #5B3001",
"A%	c #C5C4CC",
"B%	c #908C9C",
"C%	c #8B8997",
"D%	c #C9C7D1",
"E%	c #757286",
"F%	c #9695A7",
"G%	c #9F9DAF",
"H%	c #B3B0BF",
"I%	c #878599",
"J%	c #535366",
"K%	c #9795AB",
"L%	c #E03334",
"M%	c #E05454",
"N%	c #EE3333",
"O%	c #FC1616",
"P%	c #FC3535",
"Q%	c #FC3B3B",
"R%	c #E45B5B",
"S%	c #FF3C3C",
"T%	c #FE7F7F",
"U%	c #FDEAEA",
"V%	c #FDD7D7",
"W%	c #F57273",
"X%	c #FF6769",
"Y%	c #845755",
"Z%	c #FF940B",
"`%	c #F49B09",
" &	c #F29A0A",
".&	c #CB7809",
"+&	c #574300",
"@&	c #8D777F",
"#&	c #9898A3",
"$&	c #9D9AA9",
"%&	c #908F9E",
"&&	c #9493A3",
"*&	c #ACA9B9",
"=&	c #C5C3CF",
"-&	c #B4B1C1",
";&	c #9C98AE",
">&	c #C7C5D0",
",&	c #777491",
"'&	c #CDCAD7",
")&	c #E12121",
"!&	c #E02F2F",
"~&	c #E23333",
"{&	c #F90000",
"]&	c #FC0000",
"^&	c #F60F0F",
"/&	c #F64F4F",
"(&	c #FE4948",
"_&	c #FE8A8A",
":&	c #FDA5A6",
"<&	c #FDC1C1",
"[&	c #FB9092",
"}&	c #FB5F63",
"|&	c #FA9C9F",
"1&	c #FDCDCF",
"2&	c #FBCDCD",
"3&	c #F09211",
"4&	c #F0980C",
"5&	c #F28D0D",
"6&	c #5D3801",
"7&	c #BC8188",
"8&	c #DCA6AE",
"9&	c #8D899B",
"0&	c #8A8092",
"a&	c #B399A9",
"b&	c #9F98AB",
"c&	c #9390A5",
"d&	c #A09DB2",
"e&	c #AFADBF",
"f&	c #938FA8",
"g&	c #9C99AF",
"h&	c #CFCCDA",
"i&	c #E02E2E",
"j&	c #E00D0D",
"k&	c #E00D0C",
"l&	c #F80606",
"m&	c #FC3636",
"n&	c #FC7878",
"o&	c #FB8080",
"p&	c #FC6C6D",
"q&	c #FC7D7F",
"r&	c #FB9193",
"s&	c #F9353A",
"t&	c #F9757A",
"u&	c #FBA6A8",
"v&	c #FCDADB",
"w&	c #FCDDDF",
"x&	c #F19E6A",
"y&	c #EE8C0C",
"z&	c #EF700F",
"A&	c #5D3601",
"B&	c #BC959B",
"C&	c #FCDBDE",
"D&	c #D77D8B",
"E&	c #F56473",
"F&	c #F7B1B8",
"G&	c #F7D5D9",
"H&	c #A89CAC",
"I&	c #9290A6",
"J&	c #AFABBE",
"K&	c #9C99B0",
"L&	c #9794AD",
"M&	c #B2AFC3",
"N&	c #E06969",
"O&	c #E16E6E",
"P&	c #E80808",
"Q&	c #FC0E0F",
"R&	c #FC4747",
"S&	c #FC7676",
"T&	c #FC8383",
"U&	c #FB3434",
"V&	c #FB2B2E",
"W&	c #FA464A",
"X&	c #FA5155",
"Y&	c #F82D33",
"Z&	c #F97D82",
"`&	c #F9989D",
" *	c #FAAFB2",
".*	c #FAB1B4",
"+*	c #EE8B79",
"@*	c #D27E09",
"#*	c #E46110",
"$*	c #5C3603",
"%*	c #BA6D76",
"&*	c #F699A2",
"**	c #E95667",
"=*	c #EE7785",
"-*	c #F3A3AD",
";*	c #F6C6CC",
">*	c #F1A6B1",
",*	c #A8A7BA",
"'*	c #9F9DB2",
")*	c #9390AB",
"!*	c #8F8BA7",
"~*	c #E16C6C",
"{*	c #E07070",
"]*	c #EA2D2D",
"^*	c #FC0A0A",
"/*	c #FC3635",
"(*	c #FC4646",
"_*	c #FB4C4C",
":*	c #FB4141",
"<*	c #FA292C",
"[*	c #EE161C",
"}*	c #F4373D",
"|*	c #F61820",
"1*	c #F7535A",
"2*	c #F86C73",
"3*	c #F87B82",
"4*	c #F77C84",
"5*	c #D56A49",
"6*	c #A8690B",
"7*	c #DC6C11",
"8*	c #5F1D06",
"9*	c #B53442",
"0*	c #ED4E5F",
"a*	c #D7485C",
"b*	c #F28793",
"c*	c #F5B1BA",
"d*	c #F5A8B2",
"e*	c #CF8194",
"f*	c #A6A4B9",
"g*	c #A5A3B9",
"h*	c #A2A0B8",
"i*	c #B2B0C4",
"j*	c #E14646",
"k*	c #E14848",
"l*	c #E53333",
"m*	c #FB0303",
"n*	c #FB0E0E",
"o*	c #FD0E0E",
"p*	c #EE4E52",
"q*	c #FD7D81",
"r*	c #DA5359",
"s*	c #FB7C81",
"t*	c #F8767B",
"u*	c #F30A16",
"v*	c #F4343E",
"w*	c #F34651",
"x*	c #EB3E4B",
"y*	c #1D1502",
"z*	c #211B00",
"A*	c #211F00",
"B*	c #B33C4B",
"C*	c #ED4E60",
"D*	c #EF5F70",
"E*	c #F49BA6",
"F*	c #F9D6DA",
"G*	c #FAE4E7",
"H*	c #EF9AA7",
"I*	c #7A7C96",
"J*	c #9390AD",
"K*	c #E01919",
"L*	c #E81818",
"M*	c #E52727",
"N*	c #F85859",
"O*	c #F90F0F",
"P*	c #F40202",
"Q*	c #F72222",
"R*	c #EE5F61",
"S*	c #DF686D",
"T*	c #E2373F",
"U*	c #F98B90",
"V*	c #FBC0C3",
"W*	c #F8848B",
"X*	c #EB2533",
"Y*	c #E7424F",
"Z*	c #E47480",
"`*	c #FF5765",
" =	c #FF97A1",
".=	c #FFD2D8",
"+=	c #FFF9FB",
"@=	c #F9B5BD",
"#=	c #E63349",
"$=	c #EF7181",
"%=	c #F39BA6",
"&=	c #F6BCC4",
"*=	c #F6C4CC",
"==	c #F497A5",
"-=	c #856E86",
";=	c #B38AA4",
">=	c #B79FB6",
",=	c #A19FB9",
"'=	c #9E9BB5",
")=	c #FA0000",
"!=	c #FF0000",
"~=	c #FF2F2E",
"{=	c #F35557",
"]=	c #F80E0D",
"^=	c #FB7777",
"/=	c #FB8283",
"(=	c #DF222A",
"_=	c #F65961",
":=	c #F7737B",
"<=	c #F5747D",
"[=	c #D01A2A",
"}=	c #D64959",
"|=	c #E73243",
"1=	c #F26673",
"2=	c #F596A0",
"3=	c #F7B9C0",
"4=	c #F9D0D5",
"5=	c #F6B4BC",
"6=	c #E82C44",
"7=	c #ED5B6F",
"8=	c #EF7C8C",
"9=	c #F08A9A",
"0=	c #F08E9E",
"a=	c #E66F84",
"b=	c #C16984",
"c=	c #ED8194",
"d=	c #F9DBE0",
"e=	c #BEA2B6",
"f=	c #9D9AB5",
"g=	c #FF0505",
"h=	c #FF5555",
"i=	c #FE8484",
"j=	c #FB1F20",
"k=	c #FC5151",
"l=	c #FC8282",
"m=	c #FB9190",
"n=	c #D94B4D",
"o=	c #D20C18",
"p=	c #E82835",
"q=	c #DA4856",
"r=	c #DF6874",
"s=	c #D85160",
"t=	c #E6192D",
"u=	c #F05968",
"v=	c #F3818E",
"w=	c #F48F9B",
"x=	c #F49AA5",
"y=	c #F18896",
"z=	c #E73F57",
"A=	c #E41734",
"B=	c #E73F58",
"C=	c #E9546B",
"D=	c #EA556D",
"E=	c #D2617B",
"F=	c #BC4063",
"G=	c #E98296",
"H=	c #EEA3B2",
"I=	c #EA93A4",
"J=	c #8585A6",
"K=	c #FE0000",
"L=	c #FF0202",
"M=	c #FF2726",
"N=	c #FF0B0B",
"O=	c #FB2727",
"P=	c #FC5B5B",
"Q=	c #FC6161",
"R=	c #FB4849",
"S=	c #B95C65",
"T=	c #D52736",
"U=	c #DE5F6D",
"V=	c #E08792",
"W=	c #E1A1AA",
"X=	c #E16675",
"Y=	c #EB1B32",
"Z=	c #ED4558",
"`=	c #ED596C",
" -	c #EE6374",
".-	c #EA4D62",
"+-	c #ED8090",
"@-	c #E8566D",
"#-	c #E11C3B",
"$-	c #E12A49",
"%-	c #C54464",
"&-	c #DC6A84",
"*-	c #EC798E",
"=-	c #E4506C",
"--	c #E24562",
";-	c #AD6687",
">-	c #7F7B9F",
". + @ # $ % & * = - ; > , ' ) ! ~ { ] ] ^ / ( _ : < [ } | 1 2 3 ",
"4 5   6 7 8 9 0 a b c d e f ~ g h i j k ' l m n o p q r s t u r ",
"v w x y z A B C D i E F o G H   I m J = K 1 ; F ~ L = M N O P r ",
"Q R S T U V W X Y Z `    ...+.@.  #.D p ..$.%.n : %.&.*.M - =.-.",
";.>.,.'.).!.~.{.].^./.(.  _.:.<.F [.}.|. .t ] 1.2.P ~ 3.}.*.4.N ",
"5.6.7.8.9.0.a.b.c.d.e.f.g.h.i.j.k.l.  i m.n.o.p.q.r.s.t.u.v.w.M ",
"x.y.z.A.B.C.D.E.F.G.H.I.J.K.! L.M.N._.p O.P.Q.R.S.T.U.V.W.X.Y.Z.",
"`. +.+++@+#+$+%+  &+*+=+-+;+>+,+'+)+!+~+{+]+^+/+(+_+:+<+[+}+|+1+",
"2+3+4+5+6+7+8+9+0+a+b+c+d+e+f+g+)+h+  i+j+k+l+m+n+o+p+q+r+s+t+N ",
"u+v+w+x+y+z+A+B+C+D+E+F+G+H+I+J+K+L+M+N+O+P+Q+R+S+T+U+V+W+X+Y+Z+",
"`+ @.@+@@@#@$@%@&@*@=@-@;@>@,@'@)@!@~@{@]@^@/@(@_@:@<@[@}@|@1@  ",
"2@3@4@5@6@7@8@9@0@a@b@c@d@e@f@g@h@i@j@l+k@l@m@n@o@p@q@r@s@t@u@v@",
"w@x@y@z@A@B@C@D@E@F@G@H@I@J@K@L@M@N@O@P@Q@R@S@T@U@V@W@X@Y@Z@`@u@",
" #.#+#@###$#%#&#*#=#-#;#>#,#'#)#!#~#{#]#^#/#o.(#_#:#<#[#  }#|#1#",
"2#3#4#5#6#7#8#9#0#a#b#c#d#e#f#g#h#i#j#k#l#m#n#o#p#q#      r#s#t#",
"8#u#v#w#x#y#z#A#B#x.C#D#E#F#G#H#  H#I#J#K#L#M#N#O#P#Q#  R#S#T#U#",
"V#W#X#Y#Z#`# $.$+$@$#$$$%$&$*$=$k#-$;$>$,$'$)$  !$~${$]$^$    /$",
"($_$:$<$[$}$z.|$A.1$2$3$4$5$6$7$8$9$0$a$b$c$d$    e$f$g$  h$i$j$",
"k$l$m$n$o$-#p$q$r$s$t$u$v$w$x$y$z$A$B$C$D$E$F$G$H$I$J$K$L$M$N$O$",
"P$Q$R$S$T$U$V$W$X$Y$Z$`$ %.%+%@%#%$%%%&%*%=%-%    ;%>%,%  '%)%!%",
"~%{%]%^%/%(%_%C@:%<%[%}%|%1%2%3%4%5%6%7%  8%9%  0%a%  b%c%d%e%f%",
"g%h%i%j%k%l%m%n%o%p%q%r%s%t%u%v%w%x%y%z%  A%B%C%D%E%F%G%H%I%J%K%",
"L%M%N%O%P%Q%R%S%T%p$U%V%W%X%Y%Z%`% &.&+&@&#&$&%&&&*&=&-&;&>&,&'&",
")&!&~&{&]&^&/&(&_&:&<&[&}&|&1&2&3&4&5&6&7&8&9&0&a&b&c&d&e&f&g&h&",
"i&j&k&l&m&n&o&P%p&q&r&s&t&u&v&w&x&y&z&A&B&C&D&E&F&G&H&I&J&K&L&M&",
"N&O&P&Q&R&S&T&U&V&W&X&Y&Z&`& *.*+*@*#*$*%*&***=*-*;*>*,*'*  )*!*",
"~*{*]*^*/*(*_*:*<*[*}*|*1*2*3*4*5*6*7*8*9*0*a*b*c*d*e*f*  g*h*i*",
"j*k*l*]&m*n*o*p*q*r*s*t*u*v*w*x*y*z*A*a.B*C*D*E*F*G*H*I*      J*",
"K*L*M*N*O*P*Q*R*S*T*U*V*W*X*Y*Z*`* =.=+=@=#=$=%=&=*===-=;=>=,='=",
")=!=~=2${=]=R&^=/=(=_=:=<=[=}=|=1=2=3=4=5=6=7=8=9=0=a=b=c=d=e=f=",
"!=g=h=i=#$j=k=l=m=n=o=p=q=r=s=t=u=v=w=x=y=z=A=B=C=D=E=F=G=H=I=J=",
"K=L=M=S%N=O=(*P=Q=R=S=T=U=V=W=X=Y=Z=`= -.-+-@-#-$-%-&-*-=---;->-"};
